HIERARCHY
ROOT joint_0
{
	OFFSET 0.000000 0.000000 0.000000
	CHANNELS 6 Xposition Yposition Zposition Zrotation Yrotation Xrotation 
	JOINT joint_1
	{
		OFFSET 11.612000 -0.419000 106.198000
		CHANNELS 3 Zrotation Yrotation Xrotation
		JOINT joint_2
		{
			OFFSET -1.708000 -1.022000 97.564090
			CHANNELS 3 Zrotation Yrotation Xrotation
			JOINT joint_3
			{
				OFFSET -4.121000 -1.538000 97.375000
				CHANNELS 3 Zrotation Yrotation Xrotation
				JOINT joint_4
				{
					OFFSET 5.442000 -2.123000 132.795900
					CHANNELS 3 Zrotation Yrotation Xrotation
					JOINT joint_5
					{
						OFFSET 21.935000 0.195000 82.975100
						CHANNELS 3 Zrotation Yrotation Xrotation
						End Site
						{
							OFFSET 0.000000 0.000000 0.000000
						}
					}
				}
				JOINT joint_6
				{
					OFFSET 4.262000 -30.048000 73.899900
					CHANNELS 3 Zrotation Yrotation Xrotation
					JOINT joint_7
					{
						OFFSET 9.731000 -136.810010 -21.963010
						CHANNELS 3 Zrotation Yrotation Xrotation
						JOINT joint_8
						{
							OFFSET 33.360000 -35.709000 -267.597900
							CHANNELS 3 Zrotation Yrotation Xrotation
							JOINT joint_9
							{
								OFFSET 36.156000 -29.759000 -240.558040
								CHANNELS 3 Zrotation Yrotation Xrotation
								End Site
								{
									OFFSET 0.000000 0.000000 0.000000
								}
							}
						}
					}
				}
				JOINT joint_10
				{
					OFFSET 2.027000 27.734000 74.914920
					CHANNELS 3 Zrotation Yrotation Xrotation
					JOINT joint_11
					{
						OFFSET -5.183000 136.784000 -23.604980
						CHANNELS 3 Zrotation Yrotation Xrotation
						JOINT joint_12
						{
							OFFSET 29.806000 37.229000 -267.809940
							CHANNELS 3 Zrotation Yrotation Xrotation
							JOINT joint_13
							{
								OFFSET 36.890000 46.524990 -237.772030
								CHANNELS 3 Zrotation Yrotation Xrotation
								End Site
								{
									OFFSET 0.000000 0.000000 0.000000
								}
							}
						}
					}
				}
			}
		}
	}
	JOINT joint_14
	{
		OFFSET -7.290000 -102.873990 -124.314940
		CHANNELS 3 Zrotation Yrotation Xrotation
		JOINT joint_15
		{
			OFFSET -15.466000 -19.909010 -438.533020
			CHANNELS 3 Zrotation Yrotation Xrotation
			JOINT joint_16
			{
				OFFSET -26.899000 -18.922000 -464.797000
				CHANNELS 3 Zrotation Yrotation Xrotation
				JOINT joint_17
				{
					OFFSET 179.329000 -12.011000 -84.174000
					CHANNELS 3 Zrotation Yrotation Xrotation
					End Site
					{
						OFFSET 0.000000 0.000000 0.000000
					}
				}
			}
		}
	}
	JOINT joint_18
	{
		OFFSET -6.225000 101.546000 -125.479980
		CHANNELS 3 Zrotation Yrotation Xrotation
		JOINT joint_19
		{
			OFFSET -13.973000 7.996000 -438.963010
			CHANNELS 3 Zrotation Yrotation Xrotation
			JOINT joint_20
			{
				OFFSET -44.294000 5.716000 -463.813970
				CHANNELS 3 Zrotation Yrotation Xrotation
				JOINT joint_21
				{
					OFFSET 178.505000 -4.689000 -85.139000
					CHANNELS 3 Zrotation Yrotation Xrotation
					End Site
					{
						OFFSET 0.000000 0.000000 0.000000
					}
				}
			}
		}
	}
}
MOTION
Frames: 6
Frame Time: 0.016667
275.359010 -137.876010 1153.797970 1.184039 1.761837 1.900034 -2.202249 11.195035 -2.554667 -3.026202 -2.003577 0.677652 -3.091494 1.960194 -0.244202 -0.695101 2.116018 2.598830 0.000000 0.000000 0.000000 -2.921835 1.544432 1.425025 0.045446 0.768495 -2.847836 2.445389 -14.413622 0.925069 0.000000 0.000000 0.000000 -0.749941 0.409267 0.993926 -0.115915 0.536446 1.608509 -1.811600 -6.257091 -4.866542 0.000000 0.000000 0.000000 -3.287901 -21.445085 -5.454856 -5.259798 29.482901 4.169635 -5.624785 -2.500494 -2.619130 0.000000 0.000000 0.000000 0.818744 3.834834 -0.073575 0.747174 10.477473 1.009844 0.998816 7.908740 0.645667 0.000000 0.000000 0.000000 
288.592010 -141.330990 1153.630980 1.209179 2.066506 2.007912 -2.458841 11.300096 -2.637282 -3.016794 -2.030076 0.715857 -3.058299 1.932844 -0.223090 -0.710940 2.178678 2.657619 0.000000 0.000000 0.000000 -3.015128 1.383624 1.292685 0.131653 0.615968 -2.529930 2.542143 -15.040996 0.726035 0.000000 0.000000 0.000000 -0.801243 0.194232 1.177923 -0.156486 0.311190 1.479068 -1.740787 -6.089752 -4.552386 0.000000 0.000000 0.000000 -3.386886 -21.380429 -4.863683 -5.348244 23.031880 2.886042 -5.321583 -2.342931 -2.515079 0.000000 0.000000 0.000000 0.754257 4.345852 0.062670 0.713036 10.083723 0.949066 0.926470 8.632154 0.630543 0.000000 0.000000 0.000000 
302.419010 -145.199010 1152.922000 1.278424 2.452109 2.098434 -2.627782 11.192419 -2.624427 -3.028556 -1.997048 0.714640 -3.056363 1.926079 -0.224993 -0.712783 2.286382 2.666100 0.000000 0.000000 0.000000 -3.118030 1.192892 1.205177 0.207461 0.431782 -2.183914 2.582110 -15.338668 0.535849 0.000000 0.000000 0.000000 -0.872508 0.006257 1.298226 -0.183527 0.125102 1.434005 -1.674153 -5.926275 -4.260968 0.000000 0.000000 0.000000 -3.473153 -21.361063 -4.277688 -5.287708 16.910090 1.571157 -5.037057 -1.416715 -2.336067 0.000000 0.000000 0.000000 0.683349 4.729771 0.249587 0.663744 9.823821 0.884824 0.857677 9.247309 0.614593 0.000000 0.000000 0.000000 
316.802000 -149.474000 1151.786010 1.426757 2.890034 2.209918 -2.746478 10.961298 -2.576588 -3.069308 -1.941762 0.699093 -3.091362 1.925044 -0.241539 -0.705366 2.422457 2.640973 0.000000 0.000000 0.000000 -3.231303 0.975224 1.119026 0.279676 0.226944 -1.732884 2.554647 -15.320474 0.276790 0.000000 0.000000 0.000000 -0.965549 -0.167077 1.385639 -0.204797 -0.039214 1.402163 -1.588795 -5.688247 -3.912581 0.000000 0.000000 0.000000 -3.532309 -21.150794 -3.681369 -5.040620 10.339989 0.054213 -4.801055 0.485378 -2.087487 0.000000 0.000000 0.000000 0.587060 5.048037 0.462121 0.575629 9.618950 0.804449 0.760538 9.821137 0.585271 0.000000 0.000000 0.000000 
331.673000 -154.145000 1150.060060 1.759142 3.076177 2.481236 -2.861743 11.032628 -2.727112 -3.165770 -2.000127 0.788961 -3.192845 1.927298 -0.250511 -0.694721 2.553145 2.601386 0.000000 0.000000 0.000000 -3.316254 0.776315 1.043751 0.329729 0.042292 -1.338694 2.505077 -15.180715 0.088436 0.000000 0.000000 0.000000 -1.049644 -0.340091 1.435478 -0.224867 -0.201971 1.393776 -1.508429 -5.479299 -3.564683 0.000000 0.000000 0.000000 -3.507558 -20.721200 -3.424151 -4.623979 4.765396 -1.156701 -4.601575 2.234501 -1.851221 0.000000 0.000000 0.000000 0.449565 5.551404 0.508783 0.421404 9.581031 0.817540 0.624151 10.382059 0.536597 0.000000 0.000000 0.000000 
346.984010 -159.235990 1147.646970 2.007261 2.980565 2.806563 -2.898740 11.372138 -2.931774 -3.204078 -2.111928 0.904839 -3.237660 1.945082 -0.248740 -0.687167 2.642557 2.566429 0.000000 0.000000 0.000000 -3.337399 0.624925 1.010739 0.342423 -0.099038 -1.146022 2.471581 -15.060343 0.098647 0.000000 0.000000 0.000000 -1.107602 -0.532796 1.418590 -0.243808 -0.383446 1.456180 -1.448969 -5.368983 -3.253007 0.000000 0.000000 0.000000 -3.292588 -20.467819 -3.462311 -4.137278 1.685116 -1.660135 -4.239427 1.548512 -1.715035 0.000000 0.000000 0.000000 0.377783 6.324080 0.445407 0.319271 9.699444 0.945002 0.559997 10.876148 0.516521 0.000000 0.000000 0.000000 
